<svg xmlns="http://www.w3.org/2000/svg" width="200" height="33" viewBox="0 0 200 33" fill="none"> <path d="M23.8002 4.81421H20.5807V27.9224H35.6552V25.1241H23.8002V4.81421Z" fill="#061E53"/> <path d="M48.8641 4.39294C42.1242 4.39294 36.6481 9.8691 36.6481 16.609C36.6481 23.3489 42.1242 28.825 48.8641 28.825C55.604 28.825 61.0501 23.3489 61.0501 16.609C61.0501 9.8691 55.5739 4.39294 48.8641 4.39294ZM48.8641 25.9967C43.6888 25.9967 39.4764 21.7842 39.4764 16.609C39.4764 11.4337 43.6888 7.22129 48.8641 7.22129C54.0394 7.22129 58.2518 11.4337 58.2518 16.609C58.2518 21.7842 54.0394 25.9967 48.8641 25.9967Z" fill="#061E53"/> <path d="M0 27.9224H3.18941V17.7524H15.1647V14.9541H3.18941V7.61246H16.3683V4.81421H0V27.9224Z" fill="#061E53"/> <path d="M109.192 4.81421H105.22L92.9743 17.5418V4.81421H89.7548V27.9224H92.9743V21.1825L98.1495 16.3382L105.672 27.9224H109.493L100.376 14.0515L109.192 4.81421Z" fill="#061E53"/> <path d="M196.329 4.81421L189.499 15.4055H189.318L182.428 4.81421H178.577L187.694 18.3541V27.9224H190.913V18.3541L200 4.81421H196.329Z" fill="#061E53"/> <path d="M176.802 15.4957C177.554 14.3523 177.945 12.9683 177.945 11.3736C177.945 9.44787 177.343 7.85317 176.14 6.64962C174.936 5.41598 173.161 4.78411 170.784 4.78411H160.433V2.79825V0H157.635H130.766H127.967V2.79825V4.78411H110.335V7.58237H118.279V27.9224H121.468V7.61246H129.412V5.02482L129.532 4.93456L130.706 5.95757V2.82834H157.575V5.86731L158.658 4.93456V28.0728L157.575 27.1401V29.7277H130.706V9.38769H127.907V29.6976V32.4959H130.706H157.575H160.373V29.6976V27.9224H161.877V18.3842H170.363L175.387 27.9224H178.968L173.642 17.9028C175.026 17.4214 176.049 16.609 176.802 15.4957ZM170.573 15.586H161.908V7.61246H170.573C171.957 7.61246 172.98 7.94343 173.642 8.63547C174.334 9.29743 174.695 10.2302 174.695 11.4337C174.695 12.7275 174.304 13.7506 173.552 14.5028C172.8 15.2249 171.837 15.586 170.573 15.586Z" fill="#061E53"/> <path d="M75.7936 28.9454C80.7883 28.9454 84.8202 25.9967 86.3848 21.5737H83.1051C81.9016 24.5826 79.1334 26.3879 75.7936 26.3879C70.7687 26.3879 66.466 22.3259 66.466 16.5489C66.466 10.7417 70.7687 6.73992 75.7936 6.73992C79.1334 6.73992 81.9016 8.54524 83.1051 11.5541H86.3848C84.8202 7.13107 80.7883 4.18237 75.7936 4.18237C69.0537 4.18237 63.6076 9.47799 63.6076 16.5489C63.6076 23.5896 69.0537 28.9454 75.7936 28.9454Z" fill="#000000"/> </svg>